<svg width="100" height="100" viewBox="0 0 100 100" fill="none" xmlns="http://www.w3.org/2000/svg">
<g clip-path="url(#clip0_16_2)">
<path d="M50 0L54.5843 7.84858L60.7485 1.16897L63.5384 9.81949L70.9946 4.62123L71.8593 13.6693L80.2585 10.1953L79.1583 19.2178L88.1083 17.6307L85.0941 26.2057L94.1759 26.5796L89.3884 34.3062L98.1773 36.6236L91.8417 43.1405L99.927 47.293L92.3376 52.2955L99.341 58.0891L90.8546 61.3432L96.4486 68.5068L87.4608 69.8606L91.3843 78.0595L82.316 77.4493L84.385 86.2997L75.6597 83.7544L75.7774 92.843L67.8031 88.4811L65.9651 97.3829L59.1148 91.4087L55.406 99.707L50 92.3999L44.5941 99.707L40.8853 91.4087L34.0349 97.3829L32.1967 88.4811L24.2224 92.843L24.3406 83.7544L15.6151 86.2997L17.6843 77.4493L8.6156 78.0595L12.5391 69.8606L3.5512 68.5068L9.1455 61.3432L0.658711 58.0891L7.66221 52.2955L0.0733643 47.293L8.15856 43.1405L1.82254 36.6236L10.6114 34.3062L5.82443 26.5796L14.906 26.2057L11.8919 17.6307L20.8416 19.2178L19.7413 10.1953L28.1406 13.6693L29.0056 4.62123L36.4617 9.81949L39.2515 1.16897L45.4158 7.84858L50 0Z" fill="#0000FE"/>
<path d="M30.222 29.075H44.3336L50.1252 52.7304H50.6146L64.2368 29.075H78.3484L71.4147 70.839H60.3215L64.3183 46.6942H63.9921L50.7777 70.5129H44.089L38.7869 46.5311H38.4606L34.3821 70.839H23.2886L30.222 29.075Z" fill="#EFFF57"/>
</g>
<defs>
<clipPath id="clip0_16_2">
<rect width="100" height="100" fill="white"/>
</clipPath>
</defs>
</svg>
