<svg width="152" height="152" viewBox="0 0 152 152" fill="none" xmlns="http://www.w3.org/2000/svg">
<g clip-path="url(#clip0_16_2)">
<path d="M76 0L82.968 11.9298L92.3377 1.77684L96.5783 14.9256L107.912 7.02427L109.226 20.7773L121.993 15.4969L120.321 29.211L133.925 26.7987L129.343 39.8326L143.147 40.4009L135.87 52.1454L149.229 55.6679L139.599 65.5735L151.889 71.8854L140.353 79.4891L150.998 88.2954L138.099 93.2417L146.602 104.13L132.94 106.188L138.904 118.651L125.12 117.723L128.265 131.176L115.003 127.307L115.182 141.121L103.061 134.491L100.267 148.022L89.8544 138.941L84.217 151.555L76 140.448L67.7829 151.555L62.1456 138.941L51.7331 148.022L48.9389 134.491L36.8179 141.121L36.9977 127.307L23.7348 131.176L26.8801 117.723L13.0956 118.651L19.0594 106.188L5.39776 104.13L13.9011 93.2417L1.00118 88.2954L11.6465 79.4891L0.11145 71.8854L12.4009 65.5735L2.7702 55.6679L16.1293 52.1454L8.85307 40.4009L22.657 39.8326L18.0756 26.7987L31.6791 29.211L30.0067 15.4969L42.7736 20.7773L44.0884 7.02427L55.4217 14.9256L59.6622 1.77684L69.0319 11.9298L76 0Z" fill="#0000FE"/>
<path d="M45.9375 44.194H67.3872L76.1903 80.1502H76.9342L97.64 44.194H119.09L108.55 107.675H91.6887L97.7639 70.9752H97.268L77.1821 107.18H67.0153L58.9561 70.7272H58.4602L52.2608 107.675H35.3987L45.9375 44.194Z" fill="#EFFF57"/>
</g>
<defs>
<clipPath id="clip0_16_2">
<rect width="152" height="152" fill="white"/>
</clipPath>
</defs>
</svg>
